<?xml version="1.0" encoding="UTF-8"?>
<svg width="89px" height="34px" viewBox="0 0 89 34" version="1.1" xmlns="http://www.w3.org/2000/svg" xmlns:xlink="http://www.w3.org/1999/xlink">
    <!-- Generator: Sketch 42 (36781) - http://www.bohemiancoding.com/sketch -->
    <title>expressdrivesmall</title>
    <desc>Created with Sketch.</desc>
    <defs></defs>
    <g id="Page-1" stroke="none" stroke-width="1" fill="none" fill-rule="evenodd">
        <g id="expressdrivesmall" fill="#E0A20E">
            <path d="M74.201176,8.0723671 C80.5524507,8.0723671 86.1369943,7.1769366 86.6746035,6.0723671 C86.6959634,6.02848097 86.709035,5.98492498 86.7140448,5.94174218 L88.5973227,2.0723671 L65.5973227,2.0723671 L63.6504678,6.0723671 C63.1369943,7.1769366 67.8499014,8.0723671 74.201176,8.0723671 Z" id="Combined-Shape"></path>
            <path d="M76.1480309,4.0723671 C82.4993055,4.0723671 88.0838492,3.1769366 88.6214583,2.0723671 C89.1590674,0.967797598 84.4461603,0.0723670977 78.0948857,0.0723670977 C71.7436111,0.0723670977 66.1590674,0.967797598 65.6214583,2.0723671 C65.0838492,3.1769366 69.7967562,4.0723671 76.1480309,4.0723671 Z" id="Oval" stroke="#FFFFFF"></path>
            <path d="M67.9577533,20.900078 C74.3090279,20.900078 79.8935716,20.0046475 80.4311807,18.900078 C80.4525407,18.8561918 80.4656123,18.8126359 80.470622,18.7694531 L82.3538999,14.900078 L59.3538999,14.900078 L57.4070451,18.900078 C56.8935716,20.0046475 61.6064787,20.900078 67.9577533,20.900078 Z" id="Combined-Shape"></path>
            <path d="M69.9046081,16.900078 C76.2558828,16.900078 81.8404264,16.0046475 82.3780356,14.900078 C82.9156447,13.7955085 78.2027376,12.900078 71.851463,12.900078 C65.5001883,12.900078 59.9156447,13.7955085 59.3780356,14.900078 C58.8404264,16.0046475 63.5533335,16.900078 69.9046081,16.900078 Z" id="Oval" stroke="#FFFFFF"></path>
            <path d="M61.7143306,33.7277888 C68.0656052,33.7277888 73.6501489,32.8323583 74.187758,31.7277888 C74.209118,31.6839027 74.2221895,31.6403467 74.2271993,31.5971639 L76.1104772,27.7277888 L53.1104772,27.7277888 L51.1636223,31.7277888 C50.6501489,32.8323583 55.3630559,33.7277888 61.7143306,33.7277888 Z" id="Combined-Shape"></path>
            <path d="M63.6611854,29.7277888 C70.01246,29.7277888 75.5970037,28.8323583 76.1346128,27.7277888 C76.6722219,26.6232193 71.9593149,25.7277888 65.6080402,25.7277888 C59.2567656,25.7277888 53.6722219,26.6232193 53.1346128,27.7277888 C52.5970037,28.8323583 57.3099108,29.7277888 63.6611854,29.7277888 Z" id="Oval" stroke="#FFFFFF"></path>
            <polygon id="Path-2" points="62.5056399 1.5077179 60.4860519 5.6571552 13.2966655 3.58243655"></polygon>
            <polygon id="Path-2-Copy" points="56.0237612 14.8253593 54.0041732 18.9747966 6.81478682 16.900078"></polygon>
            <polygon id="Path-2-Copy-2" points="49.7803385 27.6530702 47.7607505 31.8025075 0.571364081 29.7277888"></polygon>
        </g>
    </g>
</svg>